<svg version="1.2" xmlns="http://www.w3.org/2000/svg" viewBox="0 0 163 142" width="163" height="142"><style>.a{fill:#130e27}</style><path fill-rule="evenodd" class="a" d="m149.8 75.2l-67.9 66.8-67.8-66.8c-17.6-17.2-17.6-45.1 0-62.3 17.4-17.2 45.8-17.2 63.3 0 1.7 1.7 3.2 3.4 4.5 5.3 1.4-1.9 2.9-3.6 4.6-5.3 17.5-17.2 45.8-17.2 63.3 0 17.5 17.2 17.5 45.1 0 62.3zm-9-53.4c-12.5-12.3-32.8-12.3-45.3 0-3 2.9-13.6 13.4-13.6 13.4 0 0-10.5-10.5-13.5-13.4-12.5-12.3-32.8-12.3-45.3 0-12.5 12.3-12.5 32.2 0 44.5 3.2 3.2 58.8 57.9 58.8 57.9 0 0 55.7-54.7 58.9-57.9 12.5-12.3 12.5-32.2 0-44.5zm-4.8 24.8c0 5.5-2.3 10.4-5.9 14.1l-4.8-4.7c2.4-2.4 4-5.8 4-9.4 0-7.4-6.1-13.4-13.6-13.4v-6.6c11.2 0 20.3 8.9 20.3 20z"/></svg>