<svg version="1.2" xmlns="http://www.w3.org/2000/svg" viewBox="0 0 150 150" width="150" height="150"><style>.a{fill:#130e27}</style><path fill-rule="evenodd" class="a" d="m150 75c0 41.4-33.6 75-75 75-41.4 0-75-33.6-75-75 0-41.4 33.6-75 75-75 41.4 0 75 33.6 75 75zm-12.8 6.3h-6c-3.4 0-6.2-2.8-6.2-6.3 0-3.5 2.8-6.2 6.2-6.2h6c-2.9-29.6-26.4-53.1-55.9-56v6c0 3.4-2.8 6.2-6.3 6.2-3.5 0-6.3-2.8-6.3-6.2v-6c-29.5 2.9-53 26.4-55.9 56h6c3.4 0 6.2 2.7 6.2 6.2 0 3.5-2.8 6.3-6.2 6.3h-6c2.9 29.5 26.4 53 55.9 55.9v-5.9c0-3.5 2.8-6.3 6.3-6.3 3.5 0 6.3 2.8 6.3 6.3v5.9c29.5-2.9 53-26.4 55.9-55.9zm-102-1.9l70.7-35.3-35.3 70.7-8.9-26.5zm56.8-21.4l-40.5 20.2 12.2 4.1 3 1 1 2.9 4.1 12.2z"/></svg>