<svg version="1.2" xmlns="http://www.w3.org/2000/svg" viewBox="0 0 137 137" width="137" height="137"><style>.a{fill:#130e27}</style><path class="a" d="m84.6 68.5l11.1-11.1c10.2 4.1 22.3 2 30.6-6.3l4-4.1c8.9-8.9 8.9-23.3 0-32.2l-4 4-16.2 16.1c-2.2 2.3-5.8 2.3-8.1 0-2.2-2.2-2.2-5.8 0-8l16.2-16.2 4-4c-8.9-8.9-23.4-8.9-32.3 0l-4 4c-8.3 8.3-10.4 20.4-6.4 30.6l-15 15.1-53.6-53.6-10.9-2.8 2.8 10.9 53.6 53.6-51.2 51.2c-4.5 4.4-4.5 11.6 0 16.1 4.4 4.5 11.7 4.5 16.1 0l47.2-47.2 49 49c4.5 4.5 11.7 4.5 16.1 0 4.5-4.4 4.5-11.6 0-16.1zm5.3-53.7l4.1-4.1c5.2-5.2 13.1-6.3 19.4-3.3l-15.4 15.4c-4.4 4.5-4.4 11.7 0 16.2 4.5 4.4 11.7 4.4 16.2 0l15.4-15.4c3 6.3 1.9 14.1-3.3 19.4l-4.1 4.1c-8.9 8.9-23.3 8.9-32.3 0-8.9-9-8.9-23.4 0-32.3zm-7.6 31.8q1.5 2.4 3.6 4.5 2.1 2.1 4.4 3.6l-13.7 13.8-8.1-8.1zm-65 81.1c-2.2 2.3-5.8 2.3-8.1 0-2.2-2.2-2.2-5.8 0-8l8.1-8.1 8.1 8.1zm4-20.2l39.1-39.1 8.1 8.1-39.1 39.1zm51.8-26.4l8-8.1 36.4 36.3-8.1 8.1zm56.5 48.4c-2.2 2.2-5.9 2.2-8.1 0l-8.1-8.1 8.1-8 8.1 8c2.2 2.3 2.2 5.9 0 8.1z"/></svg>