<svg version="1.2" xmlns="http://www.w3.org/2000/svg" viewBox="0 0 116 155" width="116" height="155"><style>.a{fill:#130e27}</style><path fill-rule="evenodd" class="a" d="m116 58.1c0 6.8-1.2 13.3-3.4 19.4l-15.9 32.3c-1.4 2.7-3.7 5.3-6.6 6.1 0.1 0.1 0.1 0.2 0.1 0.3v6.5c0 3.6-2.9 6.5-6.4 6.5v6.4c0 3.6-2.9 6.5-6.5 6.5v6.4c0 3.6-2.8 6.5-6.4 6.5h-25.8c-3.6 0-6.4-2.9-6.4-6.5v-6.4c-3.6 0-6.5-2.9-6.5-6.5v-6.4c-3.5 0-6.4-2.9-6.4-6.5v-6.5c0-0.1 0-0.2 0-0.3-2.7-0.7-4.7-3.3-6.5-6.1l-15.9-32.3c-2.2-6.1-3.4-12.6-3.4-19.4 0-32.1 26-58.1 58-58.1 32 0 58 26 58 58.1zm-45.1 84h-25.8v6.4h25.8zm6.4-12.9h-38.6v6.5h38.6zm6.5-12.9h-51.6v6.4h51.6zm19.3-58.1c0-25-20.2-45.2-45.1-45.2-24.9 0-45.1 20.2-45.1 45.2 0 6.9 1.6 13.5 4.4 19.4l13 25.8h55.5l12.9-25.8c2.8-5.9 4.4-12.5 4.4-19.4zm-6.4 0h-6.5c0-17.8-14.4-32.3-32.2-32.3v-6.5c21.4 0 38.7 17.4 38.7 38.8z"/></svg>